HIERARCHY
ROOT Bip001_Pelvis
{
  OFFSET 34.4345 95.6767 -26.8758
  CHANNELS 6 Xposition Yposition Zposition Zrotation Xrotation Yrotation
  JOINT Bip001_Spine
  {
    OFFSET 1.4188e-005 10.2191 -0.0116013
    CHANNELS 3 Zrotation Xrotation Yrotation
    JOINT Bip001_L_Thigh
    {
      OFFSET 11.0458 -10.2192 0.0116197
      CHANNELS 3 Zrotation Xrotation Yrotation
      JOINT Bip001_L_Calf
      {
        OFFSET -0.707118 -44.0221 0.360014
        CHANNELS 3 Zrotation Xrotation Yrotation
        JOINT Bip001_L_Foot
        {
          OFFSET -0.651902 -40.5938 -3.56146
          CHANNELS 3 Zrotation Xrotation Yrotation
          JOINT Bip001_L_Toe0
          {
            OFFSET 0.0530839 -10.2181 13.1504
            CHANNELS 3 Zrotation Xrotation Yrotation
            End Site
            {
              OFFSET -1.02532e-005 0 7.55606
            }
          }
        }
      }
    }
    JOINT Bip001_R_Thigh
    {
      OFFSET -11.0458 -10.2191 0.0115893
      CHANNELS 3 Zrotation Xrotation Yrotation
      JOINT Bip001_R_Calf
      {
        OFFSET 0.706994 -44.0221 0.35984
        CHANNELS 3 Zrotation Xrotation Yrotation
        JOINT Bip001_R_Foot
        {
          OFFSET 0.651786 -40.5938 -3.5613
          CHANNELS 3 Zrotation Xrotation Yrotation
          JOINT Bip001_R_Toe0
          {
            OFFSET -0.0531479 -10.2181 13.1504
            CHANNELS 3 Zrotation Xrotation Yrotation
            End Site
            {
              OFFSET -1.02894e-005 0 7.55606
            }
          }
        }
      }
    }
    JOINT Bip001_Spine1
    {
      OFFSET 1.87041e-005 14.5736 1.08638
      CHANNELS 3 Zrotation Xrotation Yrotation
      JOINT Bip001_Spine2
      {
        OFFSET 2.24614e-005 14.5058 -1.69078
        CHANNELS 3 Zrotation Xrotation Yrotation
        JOINT Bip001_Neck
        {
          OFFSET 2.20278e-005 15.3945 -0.489414
          CHANNELS 3 Zrotation Xrotation Yrotation
          JOINT Bip001_L_Clavicle
          {
            OFFSET 6.06036 -0.000579998 0.00836775
            CHANNELS 3 Zrotation Xrotation Yrotation
            JOINT Bip001_L_UpperArm
            {
              OFFSET 11.5509 -0.0600302 0.00193952
              CHANNELS 3 Zrotation Xrotation Yrotation
              JOINT Bip001_L_Forearm
              {
                OFFSET 25.9523 0.0806089 -2.15551
                CHANNELS 3 Zrotation Xrotation Yrotation
                JOINT Bip001_L_Hand
                {
                  OFFSET 32.2475 0.153767 1.63968
                  CHANNELS 3 Zrotation Xrotation Yrotation
                  JOINT Bip001_L_Finger0
                  {
                    OFFSET 6.04639 -2.20976 5.90322
                    CHANNELS 3 Zrotation Xrotation Yrotation
                    End Site
                    {
                      OFFSET 4.22375 -1.43895 0.606485
                    }
                  }
                  JOINT Bip001_L_Finger1
                  {
                    OFFSET 11.0826 -0.704819 -0.198153
                    CHANNELS 3 Zrotation Xrotation Yrotation
                    End Site
                    {
                      OFFSET 6.20027 -0.397518 -0.0787166
                    }
                  }
                }
              }
            }
          }
          JOINT Bip001_R_Clavicle
          {
            OFFSET -6.06037 -0.000563197 0.00835105
            CHANNELS 3 Zrotation Xrotation Yrotation
            JOINT Bip001_R_UpperArm
            {
              OFFSET -11.5509 -0.0599978 0.00190698
              CHANNELS 3 Zrotation Xrotation Yrotation
              JOINT Bip001_R_Forearm
              {
                OFFSET -25.9523 0.0806822 -2.15589
                CHANNELS 3 Zrotation Xrotation Yrotation
                JOINT Bip001_R_Hand
                {
                  OFFSET -32.2475 0.153859 1.63989
                  CHANNELS 3 Zrotation Xrotation Yrotation
                  JOINT Bip001_R_Finger0
                  {
                    OFFSET -6.04641 -2.20976 5.90317
                    CHANNELS 3 Zrotation Xrotation Yrotation
                    End Site
                    {
                      OFFSET -4.22376 -1.43895 0.60647
                    }
                  }
                  JOINT Bip001_R_Finger1
                  {
                    OFFSET -11.0826 -0.704794 -0.198182
                    CHANNELS 3 Zrotation Xrotation Yrotation
                    End Site
                    {
                      OFFSET -6.20028 -0.397504 -0.0787333
                    }
                  }
                }
              }
            }
          }
          JOINT Bip001_Head
          {
            OFFSET 1.09673e-005 11.2744 2.05948
            CHANNELS 3 Zrotation Xrotation Yrotation
            End Site
            {
              OFFSET 2.89576e-005 20.8808 -2.77728e-005
            }
          }
        }
      }
    }
  }
}
MOTION
Frames:	5
Frame Time:	0.04
32.9184 95.6669 -31.3445 1.44236 -2.54755 -2.31736 0.0638948 2.25232 -0.603404 4.14448 0.219511 14.8014 0.857658 6.31171 -1.92039 0.0795476 -3.09663 0.018973 1.58215 -4.65739 -1.05576 -6.10779 -4.5897 1.18262 0.549258 14.2841 0.908252 -6.7762 -9.02601 -0.89384 2.66132 -8.85159 2.71113 0.152509 4.50382 -1.2127 0.152037 4.50384 -1.21176 6.03456 -11.1792 -0.115938 -28.6738 12.9433 -2.16839 -50.0309 44.5499 1.54357 13.6623 -3.54927 -27.5488 7.46045 0.938475 -3.81742 6.36111e-015 0 -1.59028e-015 3.18055e-015 0 -0 23.3777 19.6065 18.595 58.4764 24.9146 -13.2167 -24.9919 15.6913 15.8637 1.40395 -9.7399 9.29887 -1.76556e-031 3.18055e-015 3.18055e-015 -1.59028e-015 6.36111e-015 1.59028e-015 -3.74807 -4.66643 1.81776 
32.9441 95.5626 -31.3973 1.52025 -2.65373 -3.53643 0.144368 2.27972 -0.618127 4.01076 0.348941 13.6209 0.443614 6.65878 0.30569 0.614203 -3.13634 0.0189737 1.68629 -5.16027 -1.04661 -6.26192 -5.3551 1.63846 0.407408 15.3923 1.25735 -6.89443 -9.44385 -0.480459 2.74418 -9.11248 2.81392 0.312946 4.55774 -1.2415 0.31342 4.55774 -1.24246 5.9098 -10.74 0.789876 -28.0146 13.1005 -3.67745 -51.4108 45.6363 2.75577 14.3843 -2.05243 -27.35 5.84022 1.30318 -3.61395 -3.18055e-015 3.18055e-015 -1.59028e-015 -3.18055e-015 3.18056e-015 -3.18055e-015 23.1187 18.1308 16.2618 58.8099 25.2238 -13.1632 -24.0414 16.229 14.7297 7.30258 -9.58667 10.6989 -2.38542e-015 6.36111e-015 2.38542e-015 -1.59028e-015 9.54167e-015 2.38542e-015 -3.77326 -5.22656 2.63025 
33.0311 95.4316 -31.4307 1.62716 -2.92031 -5.23011 0.217092 2.31798 -0.794893 3.74597 0.661681 15.4458 0.370048 7.16227 0.0279906 0.831608 -3.47875 0.0124598 1.55 -5.4726 -0.841515 -6.49681 -6.14539 2.10532 0.184487 16.6061 1.80096 -6.89568 -9.98611 0.362104 2.81236 -9.30098 2.86099 0.466952 4.6327 -1.60053 0.466954 4.63271 -1.60054 5.44923 -10.0105 2.2508 -26.7941 13.0909 -5.31366 -53.2676 47.228 4.35968 14.8426 -0.923321 -26.971 4.50219 0.975124 -3.84879 3.18055e-015 -6.36111e-015 -0 3.18055e-015 -7.95139e-015 -0 22.5619 16.2085 13.9419 60.7632 26.7461 -14.1553 -24.6068 13.794 15.1068 12.1484 -8.27651 11.3002 1.59028e-015 -3.18055e-015 3.97569e-016 1.59028e-015 -3.18056e-015 3.97569e-016 -3.4558 -5.67873 3.93315 
33.0833 95.3139 -31.5126 1.49931 -3.16567 -6.781 0.279425 2.3452 -1.04589 3.73333 0.693225 16.6041 0.342844 8.11341 0.453782 1.61252 -3.77063 0.00942253 1.73663 -5.86509 -0.863319 -6.41277 -6.755 2.80972 -0.0339867 17.4369 2.21148 -6.83198 -10.2986 1.05978 2.85304 -9.43593 2.92348 0.602449 4.68488 -2.10588 0.602447 4.68487 -2.10588 5.39614 -9.07652 3.62607 -26.1552 12.8276 -6.98365 -54.7277 48.7217 6.10384 14.5582 -1.2294 -26.5134 3.7032 0.893476 -3.65593 9.54166e-015 3.18055e-015 -7.95139e-016 6.36111e-015 3.18056e-015 -0 22.4251 14.4265 12.0029 61.3341 26.735 -14.5906 -25.6925 12.1948 16.0719 13.5254 -8.86701 12.2164 -7.95139e-016 6.36111e-015 1.59028e-015 -8.82782e-032 6.36111e-015 7.95139e-016 -3.23347 -6.22658 5.25366 
33.1322 95.2103 -31.5076 1.45953 -3.427 -8.65628 0.315492 2.37531 -1.20089 3.49569 1.05168 16.6499 0.28949 8.54705 2.03355 1.92404 -3.92805 0.00895089 1.65098 -6.08394 -0.678171 -6.3678 -7.37379 3.56409 -0.323657 18.271 2.57065 -6.67844 -10.6667 1.92059 2.88834 -9.57241 2.99221 0.681678 4.74353 -2.41798 0.681682 4.7436 -2.41799 5.46529 -8.02941 4.76315 -25.6079 12.4546 -8.93 -56.7941 49.1513 7.93664 14.4689 -1.96827 -25.9684 3.4039 1.17326 -3.41212 0 1.59028e-015 -0 -3.18055e-015 1.59028e-015 -0 22.1894 12.6046 10.1213 61.7724 25.5653 -14.2382 -26.6519 11.561 16.5641 12.8206 -10.6907 12.403 -7.95139e-016 0 7.95139e-016 -1.59028e-015 3.18056e-015 3.18055e-015 -3.17305 -7.06225 6.40182 
